<?xml version="1.0" standalone="no"?><!DOCTYPE svg PUBLIC "-//W3C//DTD SVG 1.1//EN" "http://www.w3.org/Graphics/SVG/1.1/DTD/svg11.dtd"><svg t="1753325853874" class="icon" viewBox="0 0 1024 1024" version="1.1" xmlns="http://www.w3.org/2000/svg" p-id="54267" xmlns:xlink="http://www.w3.org/1999/xlink" width="256" height="256"><path d="M953.351998 11.146507c7.393091 7.961791 11.373986 17.629679 11.373987 28.434966l-0.568699 207.006553c0 13.648784-2.843497 26.728868-7.961791 39.240253-5.118294 12.511385-12.511385 23.885372-22.179273 33.55326l-256.483395 255.914696 274.681773 274.113073c9.667888 9.099189 17.06098 20.473176 22.179273 32.984561 5.118294 12.511385 7.961791 25.59147 7.961791 39.240253 0 13.080084-2.843497 26.728868-7.961791 39.240253-5.118294 11.942686-12.511385 23.316672-22.179273 32.984561-9.099189 9.667888-20.473176 17.06098-32.984561 22.179273-12.511385 5.118294-25.59147 7.961791-39.240253 7.961791-13.080084 0-26.728868-2.843497-38.671554-7.961791-12.511385-5.118294-23.885372-12.511385-33.55326-21.610574l-347.475286-346.337887c-9.667888-9.667888-17.06098-21.041875-22.179274-33.55326a102.934577 102.934577 0 0 1-7.96179-39.240253c0-13.648784 2.843497-26.728868 7.96179-39.240254 5.118294-12.511385 12.511385-23.885372 22.179274-32.98456l493.062312-491.924914z" fill="#008C62" p-id="54268"></path><path d="M953.295129 11.373986l-188.808176 187.670777H249.814067v720.542041c0.568699 13.648784-2.274797 27.297567-7.393092 39.808953-5.118294 12.511385-12.511385 24.454071-22.747972 34.121959-9.667888 9.667888-21.041875 17.06098-33.55326 22.179274-13.080084 5.118294-26.728868 7.961791-40.377652 7.96179s-27.297567-2.843497-39.808953-7.96179a98.384983 98.384983 0 0 1-34.121959-22.179274c-9.667888-9.667888-17.629679-21.610574-22.747973-34.121959-5.118294-12.511385-7.393091-26.160169-7.393091-39.808953V112.033767C41.670115 47.202044 87.73476 0 150.291685 0h773.999778c5.686993 0 10.805287 1.137399 15.923581 2.843497 4.549595 2.274797 9.099189 5.118294 13.080085 8.530489z" fill="#00E6A0" p-id="54269"></path></svg>