<?xml version="1.0" standalone="no"?><!DOCTYPE svg PUBLIC "-//W3C//DTD SVG 1.1//EN" "http://www.w3.org/Graphics/SVG/1.1/DTD/svg11.dtd"><svg t="1751557097010" class="icon" viewBox="0 0 1024 1024" version="1.1" xmlns="http://www.w3.org/2000/svg" p-id="14593" xmlns:xlink="http://www.w3.org/1999/xlink" width="200" height="200"><path d="M97.28 51.2m30.72 0l768 0q30.72 0 30.72 30.72l0 0q0 30.72-30.72 30.72l-768 0q-30.72 0-30.72-30.72l0 0q0-30.72 30.72-30.72Z" fill="#395AC5" p-id="14594"></path><path d="M512 512c202.0864 0 366.1824 182.9376 368.64 409.6h10.24a30.72 30.72 0 0 1 0 61.44H133.12a30.72 30.72 0 0 1 0-61.44h10.2912l0.1536-8.0384C149.7088 690.5856 312.32 512 512 512z m0 161.28c-68.096 0-131.9936 27.0336-179.2 74.24a23.04 23.04 0 1 0 32.5632 32.5632A206.592 206.592 0 0 1 512 719.36c55.808 0 107.9808 22.0672 146.6368 60.7232a23.04 23.04 0 1 0 32.5632-32.5632A252.672 252.672 0 0 0 512 673.28z" fill="#395AC5" p-id="14595"></path><path d="M879.616 174.7456a465.7664 465.7664 0 0 1-16.0256 93.696 434.688 434.688 0 0 1-55.1424 121.4976 387.072 387.072 0 0 1-121.8048 118.7328A378.7776 378.7776 0 0 0 512 465.92a378.88 378.88 0 0 0-174.592 42.7008 385.792 385.792 0 0 1-121.856-118.6816 434.688 434.688 0 0 1-55.1424-121.4976 455.9872 455.9872 0 0 1-16.0256-93.696z" fill="#F5874C" p-id="14596"></path></svg>